<?xml version="1.0" standalone="no"?>
<!DOCTYPE svg PUBLIC "-//W3C//DTD SVG 20010904//EN"
 "http://www.w3.org/TR/2001/REC-SVG-20010904/DTD/svg10.dtd">
<svg version="1.0" xmlns="http://www.w3.org/2000/svg"
 width="300.000000pt" height="397.000000pt" viewBox="0 0 300.000000 397.000000"
 preserveAspectRatio="xMidYMid meet">
<metadata>
Created by potrace 1.10, written by Peter Selinger 2001-2011
</metadata>
<g transform="translate(0.000000,397.000000) scale(0.100000,-0.100000)"
fill="#000000" stroke="none">
<path d="M833 3838 c-6 -7 -13 -44 -16 -82 -7 -77 1 -96 39 -96 32 0 67 55 58
90 -4 14 -7 36 -7 50 1 32 -14 50 -42 50 -12 0 -27 -6 -32 -12z"/>
<path d="M957 3803 c-23 -26 -22 -48 8 -140 16 -47 22 -80 16 -86 -13 -13 -34
2 -27 20 10 26 -13 54 -41 51 -56 -7 -55 -69 1 -76 22 -3 25 -7 20 -27 -3 -12
-1 -26 5 -29 6 -4 8 -24 5 -50 -6 -44 -3 -50 38 -79 10 -7 21 -26 24 -44 5
-28 3 -33 -24 -47 -46 -24 -62 -53 -62 -116 0 -55 0 -55 -37 -67 -33 -11 -39
-10 -48 4 -21 35 -56 64 -85 69 -16 4 -27 10 -24 15 3 5 9 7 14 4 14 -9 32 23
25 45 -6 18 -13 21 -53 18 -41 -3 -47 -6 -50 -26 -2 -14 4 -29 15 -37 16 -13
16 -14 1 -15 -9 0 -23 -3 -31 -6 -12 -4 -15 2 -14 26 2 39 -19 56 -57 46 -22
-5 -27 -11 -24 -34 2 -19 9 -28 26 -30 28 -4 28 -15 0 -27 -13 -6 -32 -25 -43
-43 -11 -18 -35 -51 -52 -73 -42 -52 -44 -99 -7 -128 15 -12 33 -21 41 -21 18
0 13 -36 -19 -146 l-20 -72 -49 -6 c-60 -8 -73 -21 -94 -93 -24 -83 2 -123 80
-123 42 0 38 -19 -15 -70 -41 -40 -51 -55 -46 -73 4 -16 -1 -27 -17 -39 l-22
-17 23 6 c28 7 55 44 46 66 -4 12 4 18 33 26 60 17 69 14 39 -14 -17 -16 -26
-34 -26 -54 0 -37 -24 -46 -100 -37 -27 3 -71 9 -98 12 -39 5 -52 2 -75 -16
-43 -34 -37 -78 18 -140 49 -55 57 -90 28 -122 -9 -10 -19 -35 -22 -56 -5 -28
-11 -38 -28 -40 -22 -3 -63 -45 -63 -64 0 -5 13 -23 30 -40 19 -19 30 -40 30
-58 0 -18 12 -42 30 -64 23 -26 29 -40 25 -59 -7 -26 16 -58 46 -69 10 -4 7
-11 -12 -26 -37 -30 -62 -96 -54 -144 8 -44 44 -92 86 -114 l29 -15 -19 -27
c-35 -48 -31 -90 11 -138 18 -21 38 -55 43 -77 13 -54 54 -85 89 -69 15 7 28
7 31 2 12 -19 73 -28 115 -18 35 9 54 6 135 -18 52 -16 95 -32 95 -37 0 -5
-23 -34 -50 -64 -69 -76 -112 -163 -80 -163 19 0 10 -42 -10 -47 -11 -3 -20
-6 -20 -7 0 0 -9 -50 -20 -111 -32 -180 -25 -236 34 -254 17 -5 88 -13 158
-17 l126 -6 36 35 c23 23 48 37 75 42 48 8 69 2 129 -36 48 -30 81 -36 112
-19 15 8 24 3 49 -25 25 -28 31 -44 29 -76 -1 -25 5 -46 14 -56 34 -33 140 56
155 130 7 35 24 34 67 -4 19 -16 51 -33 71 -36 19 -3 38 -10 41 -14 12 -20 51
-8 73 22 31 42 93 69 163 69 49 0 59 3 75 26 17 23 22 25 71 18 48 -6 54 -9
59 -36 14 -68 142 -100 197 -49 39 37 36 90 -9 140 -22 24 -35 49 -35 65 0 26
-25 58 -66 83 -18 12 -18 13 -1 27 11 8 37 18 59 21 43 8 103 53 111 85 7 27
-3 25 -35 -5 -15 -14 -31 -25 -36 -25 -6 0 -13 -7 -16 -16 -8 -20 -51 -15 -51
6 0 10 10 15 29 15 21 1 31 7 37 23 10 26 35 37 104 45 l50 6 -35 -13 -35 -14
30 -1 c18 0 42 10 60 24 27 23 30 30 30 85 -1 80 -35 130 -129 185 -54 32 -72
49 -89 85 -15 31 -39 56 -77 82 -81 55 -110 91 -110 136 0 57 -17 104 -50 140
-36 40 -36 42 -8 42 11 0 35 11 52 24 50 38 111 65 183 82 37 8 94 30 128 48
33 18 90 41 128 51 67 17 117 56 117 91 0 31 31 11 55 -35 27 -54 57 -81 91
-81 49 0 81 73 93 213 13 154 -5 224 -65 247 -14 6 -23 20 -27 44 -3 20 -15
49 -26 64 l-20 28 24 40 c28 45 32 91 10 120 -8 10 -15 38 -15 62 0 40 -3 44
-36 58 -20 8 -34 20 -31 27 2 7 10 38 17 69 18 80 4 112 -64 143 -28 12 -67
36 -86 53 -30 26 -33 33 -23 49 57 84 68 110 71 175 3 43 -1 80 -9 101 -10 22
-13 68 -11 148 l2 116 -40 37 c-36 32 -57 40 -98 39 -10 -1 -12 7 -7 25 9 36
12 38 34 18 22 -20 61 -18 71 4 25 52 37 108 27 126 -6 10 -10 33 -9 51 3 37
-26 73 -58 73 -11 0 -32 14 -47 30 -41 46 -71 41 -138 -24 -42 -42 -55 -61
-55 -84 0 -41 -14 -49 -95 -54 -85 -6 -126 -26 -166 -81 -21 -29 -53 -53 -107
-82 -100 -52 -119 -66 -148 -109 -21 -30 -28 -35 -44 -26 -10 6 -32 11 -49 13
-16 1 -31 4 -32 7 -3 7 50 85 90 131 28 33 32 44 27 71 -12 60 -61 98 -126 98
-39 0 -53 -27 -39 -70 17 -46 2 -53 -64 -30 -31 11 -81 20 -111 20 l-55 0 15
36 c20 48 9 98 -33 145 -46 50 -87 63 -179 54 -71 -6 -76 -5 -125 25 -67 41
-100 47 -122 23z m83 -48 l29 -15 -22 -23 c-12 -12 -30 -23 -41 -24 -10 -1
-16 1 -12 4 3 3 1 14 -5 25 -7 14 -7 23 2 34 14 17 14 17 49 -1z m1434 -48
c16 -12 14 -13 -17 -13 -24 0 -33 4 -30 13 3 7 11 13 17 13 7 0 20 -6 30 -13z
m-1389 -28 c32 -19 45 -21 118 -14 75 6 85 4 110 -15 30 -24 35 -60 12 -100
-19 -33 -19 -80 0 -107 14 -19 21 -21 94 -16 58 4 91 1 127 -11 26 -9 61 -16
78 -16 l31 0 -52 -49 c-45 -41 -53 -53 -53 -84 0 -42 41 -82 75 -72 57 17 88
17 125 0 53 -24 87 -14 106 30 20 48 46 70 145 121 65 34 94 55 115 86 30 42
74 68 119 68 19 0 28 -7 36 -27 12 -34 74 -99 111 -119 15 -8 49 -14 76 -14
33 0 57 -6 72 -18 21 -17 22 -26 21 -113 -1 -62 4 -117 15 -161 20 -77 12
-126 -31 -176 -27 -32 -52 -120 -42 -146 4 -9 17 -20 30 -25 13 -5 37 -21 54
-35 17 -15 47 -33 67 -41 40 -17 40 -17 24 -97 -10 -50 -10 -62 5 -93 9 -20
24 -38 32 -41 8 -4 15 -18 15 -34 0 -15 9 -38 19 -52 19 -23 19 -24 -5 -63
-30 -51 -30 -89 1 -140 14 -22 25 -51 25 -65 0 -34 13 -51 52 -69 25 -12 34
-24 36 -46 6 -49 -9 -235 -19 -235 -5 0 -18 18 -29 41 -26 49 -77 75 -124 62
-23 -6 -36 -19 -50 -50 -18 -38 -24 -42 -85 -59 -36 -10 -95 -33 -131 -52 -36
-19 -91 -41 -124 -49 -56 -13 -118 -39 -183 -78 -30 -19 -32 -19 -67 0 -42 23
-65 15 -80 -28 -13 -34 14 -101 61 -157 32 -37 38 -51 41 -104 6 -79 38 -127
132 -195 38 -28 70 -58 70 -66 0 -24 58 -82 114 -114 61 -34 96 -73 96 -107 0
-28 -8 -30 -36 -9 -40 30 -78 7 -90 -56 -11 -54 -21 -66 -61 -74 -135 -25
-180 -133 -83 -200 27 -19 40 -35 40 -51 0 -13 14 -39 30 -57 32 -37 38 -57
18 -57 -22 0 -41 18 -57 52 -18 38 -56 59 -118 66 -23 2 -48 11 -54 18 -25 30
-68 7 -83 -43 -6 -19 -14 -23 -51 -23 -52 0 -118 -24 -158 -57 -37 -30 -74
-29 -102 1 -12 13 -54 34 -94 47 -92 30 -107 23 -103 -49 1 -28 -2 -53 -7 -57
-6 -3 -22 13 -37 35 -15 23 -47 53 -71 66 -40 24 -44 25 -73 11 -19 -10 -32
-12 -36 -5 -14 22 -110 58 -157 58 -34 0 -57 6 -74 20 -29 22 -74 26 -122 9
-35 -12 -51 -35 -51 -74 l0 -26 -72 4 c-63 4 -73 8 -76 24 -4 27 46 299 62
338 8 18 39 61 69 97 82 97 105 151 74 176 -6 6 -68 27 -137 47 -107 32 -133
36 -186 31 -53 -5 -63 -4 -79 14 -11 12 -31 20 -52 20 -26 0 -33 4 -33 20 0
11 -16 38 -36 60 l-36 39 21 27 c12 15 21 41 21 61 0 35 -13 52 -84 110 -38
31 -34 65 14 109 29 27 40 45 40 66 0 33 -16 69 -36 81 -8 4 -14 21 -14 37 0
19 -10 38 -31 58 -27 26 -29 31 -18 55 10 22 9 31 -6 53 -17 26 -16 27 15 59
24 25 31 40 27 56 -3 12 1 35 9 50 7 15 14 41 14 56 -1 36 -31 103 -59 127
-31 28 -26 37 18 30 48 -8 96 7 150 47 34 24 41 35 41 63 0 21 8 40 21 52 79
71 61 194 -29 194 -29 0 -33 3 -30 23 3 20 9 22 55 22 28 0 54 3 58 7 3 3 20
46 37 95 52 151 48 293 -7 293 -20 0 -19 14 1 31 8 7 24 30 35 50 17 35 23 38
74 44 74 10 86 -1 83 -75 -3 -50 1 -62 21 -84 49 -52 121 -25 121 46 0 36 1
38 21 28 29 -16 66 -5 76 23 4 12 8 56 8 97 l0 75 29 -2 c35 -3 66 -30 117
-105 53 -77 106 -119 144 -116 47 5 45 42 -6 130 -54 94 -80 122 -135 143 -32
12 -44 22 -42 34 2 9 -4 35 -13 56 -37 92 -39 105 -18 126 10 10 19 25 19 32
0 11 -36 122 -55 170 -9 22 -4 22 40 -4z m1390 -29 c3 -5 15 -10 25 -10 22 0
25 -4 35 -47 6 -32 6 -33 -22 -27 -37 7 -70 -23 -85 -82 -14 -49 -20 -52 -47
-25 -22 22 -18 62 10 87 10 9 19 30 19 45 0 46 47 88 65 59z m-1431 -93 c7
-18 5 -39 -4 -66 -7 -21 -10 -51 -6 -65 8 -32 -4 -33 -32 -3 -29 31 -32 104
-6 140 23 31 36 30 48 -6z m1304 -10 c-9 -18 -19 -41 -22 -51 -6 -18 -7 -18
-26 2 -25 26 -25 39 -1 47 10 3 26 14 36 25 25 28 32 15 13 -23z m231 -21 c-5
-17 -9 -32 -9 -32 0 -1 -20 -4 -45 -6 -25 -2 -45 0 -45 4 0 12 31 38 45 38 8
0 22 11 32 24 22 30 34 15 22 -28z m-847 7 c21 -19 24 -68 5 -80 -7 -4 -22
-21 -34 -36 l-21 -28 -26 27 c-25 27 -25 27 -5 52 10 14 19 38 19 53 0 23 4
29 22 29 12 0 30 -7 40 -17z m-322 -55 c0 -4 -11 -8 -25 -8 -28 0 -41 20 -31
46 6 15 10 14 31 -6 14 -13 25 -27 25 -32z m1058 -35 c-1 -10 2 -28 6 -40 7
-20 4 -23 -23 -23 -16 0 -33 5 -36 10 -4 6 -11 8 -16 5 -5 -4 -9 -1 -9 4 0 6
6 11 14 11 8 0 24 11 37 25 29 30 28 29 27 8z m-1339 -209 c37 -17 101 -72
101 -86 0 -5 12 -27 26 -49 17 -27 22 -45 16 -51 -11 -11 -47 24 -95 92 -65
93 -105 118 -170 106 l-32 -6 31 28 c17 15 35 36 39 47 6 17 10 15 28 -22 14
-29 32 -48 56 -59z m521 71 c0 -7 8 -19 18 -24 16 -10 16 -12 -2 -26 -24 -18
-48 -19 -64 -3 -8 8 -7 18 6 40 17 30 42 38 42 13z m-692 -224 c-2 -23 -6 -28
-25 -26 -23 2 -51 -22 -72 -62 -6 -13 -20 -23 -31 -23 -19 0 -28 19 -32 65 -3
51 -1 53 46 42 39 -9 48 -7 73 11 37 28 44 27 41 -7z m-443 -80 c-3 -5 0 -16
7 -23 7 -8 19 -24 26 -37 15 -25 5 -23 -30 7 -20 16 -25 62 -7 62 5 0 8 -4 4
-9z m-295 -780 c0 -5 -5 -22 -10 -36 -8 -22 -13 -25 -25 -15 -7 6 -11 19 -8
28 10 26 43 44 43 23z m1 -341 c-16 -30 -20 -48 -15 -78 8 -54 -8 -59 -39 -12
l-26 40 39 30 c21 16 41 42 45 57 5 17 9 22 12 14 3 -7 -4 -30 -16 -51z m2626
-211 c22 10 23 9 13 -9 -17 -32 -31 -34 -59 -5 -25 26 -25 27 -2 15 17 -9 30
-9 48 -1z m-2567 -84 c0 -8 4 -15 9 -15 5 0 9 -12 9 -27 0 -25 -2 -24 -19 12
-22 45 -22 45 -9 45 6 0 10 -7 10 -15z m1777 -137 c9 -7 6 -16 -9 -34 -16 -18
-24 -21 -35 -13 -13 12 -18 51 -7 62 7 6 33 -1 51 -15z m-1647 -450 c0 -5 4
-7 9 -4 5 3 11 -1 15 -9 8 -22 -27 -19 -47 3 -10 10 -14 21 -11 25 8 8 34 -3
34 -15z m439 -107 c9 -6 11 -16 7 -27 -7 -18 -8 -18 -22 0 -23 32 -16 46 15
27z m153 -562 c28 -20 29 -23 12 -32 -11 -6 -21 -11 -24 -11 -3 0 -14 -8 -25
-19 -30 -28 -66 -39 -104 -32 l-33 6 24 27 c14 15 28 35 31 45 14 38 76 46
119 16z m548 -76 c-1 -29 -40 -41 -40 -13 0 13 7 20 20 20 11 0 20 -3 20 -7z
m-147 -72 c-2 -6 3 -12 10 -13 45 -5 67 -4 67 5 0 6 3 8 6 4 3 -3 -4 -20 -16
-36 -22 -32 -48 -40 -54 -18 -2 6 -7 20 -10 30 -3 9 -5 20 -5 23 0 4 -5 11
-13 16 -10 8 -10 9 2 5 8 -2 14 -10 13 -16z"/>
<path d="M777 3623 c-11 -11 -8 -48 5 -61 30 -30 75 0 64 43 -5 19 -13 25 -35
25 -15 0 -31 -3 -34 -7z"/>
<path d="M856 3544 c-19 -18 -20 -28 -6 -55 12 -21 40 -25 58 -7 18 18 14 56
-7 68 -25 13 -27 13 -45 -6z"/>
<path d="M783 3254 c-10 -27 11 -49 47 -49 36 0 57 22 47 49 -4 11 -19 16 -47
16 -28 0 -43 -5 -47 -16z"/>
<path d="M471 3211 c-54 -15 -49 -71 6 -71 52 0 81 38 51 68 -13 13 -21 13
-57 3z"/>
<path d="M329 3134 c-19 -23 1 -48 45 -55 35 -6 76 11 76 31 0 36 -95 55 -121
24z"/>
</g>
</svg>
